# xmcd CD database file generated by MAGIX-FreeDB-MP3_deluxe_17 v3.0beta1
#
# Track frame offsets:
#	150
#	11320
#	20548
#	33337
#	43162
#	55334
#	65195
#	76338
#	88636
#	98632
#	107933
#	118107
#	130651
#	141333
#
# Disc length: 2011
#
# Revision: 0
# Processed by: cddbd v1.5.2PL0 Copyright (c) Steve Scherf et al.
# Submitted via: MAGIX-FreeDB-MP3_deluxe_17 v3.0beta1
#
DISCID=bc07d90e
DTITLE=Mpournelhs Leonardos - Poly M'Areseis
DYEAR=1900
DGENRE=Gr
TTITLE0=Poly M'Areseis
TTITLE1=Xefantwmata (Organiko)
TTITLE2=Oloi Me Lene Amartwlo
TTITLE3=Skertso Tsifteteli
TTITLE4=Ola Mou Pane Omorfa
TTITLE5=Mperdemata
TTITLE6=To Serviko Tou Nikola
TTITLE7=Tsifteteli Dynato
TTITLE8=Den Thelw Klamata
TTITLE9=Syrtopennies
TTITLE10=Pare To Daxtylidi Mou
TTITLE11=O Tzouras Exei merakia
TTITLE12=Dipla Sou Pernaw Tzami
TTITLE13=Pesto Kai Xanapesto
EXTD=
EXTT0=
EXTT1=
EXTT2=
EXTT3=
EXTT4=
EXTT5=
EXTT6=
EXTT7=
EXTT8=
EXTT9=
EXTT10=
EXTT11=
EXTT12=
EXTT13=
PLAYORDER=
